# xmcd
#
# Track frame offsets: 
#        150
#        3345
#        22153
#        37498
#        56060
#        77360
#        96795
#        119750
#        145875
#        171450
#        196303
#        211853
#        227533
#        246033
#        264750
#        285245
#
# Disc length: 4237 seconds
#
# Revision: 22
# Processed by: cddbd v1.5.2PL0 Copyright (c) Steve Scherf et al.
# Submitted via: ExactAudioCopy v1.5
#
DISCID=dc108b10
DTITLE=Y&T - Best of '81 to '85
DYEAR=1990
DGENRE=Metal
TTITLE0=From the Moon
TTITLE1=Open Fire
TTITLE2=Hurricane
TTITLE3=Mean Streak
TTITLE4=Rescue Me
TTITLE5=Black Tiger
TTITLE6=Dirty Girl
TTITLE7=Forever
TTITLE8=Midnight in Tokyo
TTITLE9=Hang 'Em High
TTITLE10=Lipstick and Leather
TTITLE11=Summertime Girls
TTITLE12=Beautiful Dreamer
TTITLE13=25 Hours a Day ( Live )
TTITLE14=Barroom Boogie
TTITLE15=I Believe in You
EXTD=YEAR: 1990 ID3G: 79
EXTT0=
EXTT1=
EXTT2=
EXTT3=
EXTT4=
EXTT5=
EXTT6=
EXTT7=
EXTT8=
EXTT9=
EXTT10=
EXTT11=
EXTT12=
EXTT13=
EXTT14=
EXTT15=
PLAYORDER=
